<svg xmlns="http://www.w3.org/2000/svg" data-name="Layer 1" viewBox="0 0 100 100" x="0px" y="0px"><title>Artboard 226</title><path d="M11.36,24.91a13,13,0,0,1,8-5.69,15.24,15.24,0,0,1,2.53-.34L25,18.79l6.23-.18,24.92-.86A1.82,1.82,0,0,0,58,16a1.82,1.82,0,0,0-1.85-1.73h-.29l-24.92-.86-6.23-.18c-1.07,0-2-.07-3.18-.06A18.88,18.88,0,0,0,5.85,21.63,19.15,19.15,0,0,0,3,28.53a22.44,22.44,0,0,0-.38,3.7l0,3.11L2.41,47.8c-.07,8.39-.17,16.46-.09,25.09a19.59,19.59,0,0,0,6.3,13.56A19.79,19.79,0,0,0,22.5,91.62l24.92-.37L59.89,91a25.54,25.54,0,0,0,6.89-.79,18.75,18.75,0,0,0,6.43-3.32A18.32,18.32,0,0,0,80,74.65a50.76,50.76,0,0,0,0-6.54l-.24-6.23h0a1.77,1.77,0,1,0-3.54,0v.28L76,68.39a39.4,39.4,0,0,1-.42,5.86,13.66,13.66,0,0,1-5.71,8.57,13.33,13.33,0,0,1-4.72,2,22.51,22.51,0,0,1-5.53.23l-12.46-.27-24.93-.36A12.47,12.47,0,0,1,9.72,72.35L9.57,47.52,9.41,35.05l0-3.09a15.5,15.5,0,0,1,.2-2.46A12.85,12.85,0,0,1,11.36,24.91Z"></path><path d="M96.61,21.4l-12-11.95,0,0h0a3.62,3.62,0,0,0-5.11,0Q64.5,24.6,49.89,40L39.62,30.39l-.11-.11h0a2.23,2.23,0,0,0-3.14.12L26,41.57A1.77,1.77,0,0,0,26,44h0a1.81,1.81,0,0,0,0,2.49l.18.19L48,70.06h0a2.79,2.79,0,0,0,3.93.11l.12-.12q22.59-21.4,44.59-43.41l0,0A3.7,3.7,0,0,0,96.61,21.4ZM28.49,44h0l.19-.18,9.23-8.55L48,46h0a2.76,2.76,0,0,0,3.89.11L52,46q15.11-14.3,29.94-28.89L88.77,24Q69.09,43.77,49.88,64,39.24,53.94,28.49,44Z"></path></svg>