<svg xmlns="http://www.w3.org/2000/svg" data-name="Layer 1" viewBox="0 0 100 100" x="0px" y="0px"><title>Artboard 304</title><path d="M57.84,24.85a15,15,0,0,0-10.13-1.4c-6.87,1.37-11.68,8-11.17,14.3,0,.4.76.7,1.68.69s1.71-.24,1.76-.51l0-.09a9.92,9.92,0,0,1,8.83-8.07,8.93,8.93,0,0,1,6.29,15.94l-.6.45c-.29.2-.69.44-1,.69a15.22,15.22,0,0,0-1.92,1.67,13.43,13.43,0,0,0-2.77,4.27,11.6,11.6,0,0,0-.81,5c.12,1.47.29,2.74.44,4.12h0c.06.34.84.61,1.77.61s1.72-.27,1.77-.61l0-.09.46-4A7.47,7.47,0,0,1,53.58,55a8.66,8.66,0,0,1,2.08-2.19A11.37,11.37,0,0,1,57,52l.76-.38c.37-.2.76-.39,1.12-.63a14.94,14.94,0,0,0,6.31-8.06,15.15,15.15,0,0,0-7.31-18.09Z"></path><path d="M82.36,3.45A25.56,25.56,0,0,0,76.69,3l-5,0-9.95-.07L22,2.75A19.74,19.74,0,0,0,3.51,16.38a20.83,20.83,0,0,0-.94,6l0,5,.06,9.94L3,77.09a24.13,24.13,0,0,0,.56,5.64,18.2,18.2,0,0,0,2.27,5.46,19,19,0,0,0,8.79,7.59,20,20,0,0,0,5.68,1.41c2.07.12,3.56,0,5.25,0L35.51,97l39.75-.86h0c1.65,0,3-.8,3-1.73s-1.3-1.69-3-1.72H74.8l-39.75-.86-9.94-.18a37,37,0,0,1-4.6-.21,12.76,12.76,0,0,1-3.86-1.21,13.09,13.09,0,0,1-5.71-5.53A14,14,0,0,1,9.62,81a22.43,22.43,0,0,1-.18-4.34l.37-39.77,0-9.94.05-4.86a11.55,11.55,0,0,1,.72-3.74,12.37,12.37,0,0,1,11.82-8.17L62.23,10,72.17,10l5,0a14.85,14.85,0,0,1,4.11.34,12.69,12.69,0,0,1,9.69,11.09l.66,39.49.19,9.94.1,5L92,78.24a17,17,0,0,1-.11,2.17,14.06,14.06,0,0,1-11,12h0c-1.41.34-2.59,1-2.62,2s1.41,1.75,3.27,1.46a4.33,4.33,0,0,0,.5-.08A18.07,18.07,0,0,0,96.33,80.53c.22-2,.19-3.56.23-5.22l.1-5,.19-9.94.34-19.88.14-9.94.07-5c0-1.67.1-3.21-.07-5.33A19.4,19.4,0,0,0,82.36,3.45Z"></path><circle cx="50.22" cy="74.57" r="4"></circle></svg>