<?xml version="1.0" encoding="UTF-8"?>
<svg width="16pt" height="16pt" version="1.1" viewBox="0 0 700 700" xmlns="http://www.w3.org/2000/svg">
 <g>
  <path d="m650.58 430.29-1.1211-47.039h0.003907c0.125-16.676-0.76563-33.344-2.6602-49.91-3.4922-18.656-12.172-35.949-25.051-49.891-12.879-13.945-29.43-23.973-47.75-28.93-8.9805-2.332-18.23-3.4609-27.512-3.3594l-23.52 0.83984-46.969 1.6094c-3.5156-0.375-7.0234 0.76172-9.6484 3.125-2.6289 2.3633-4.1289 5.7305-4.1289 9.2656s1.5 6.9023 4.1289 9.2656c2.625 2.3633 6.1328 3.5 9.6484 3.125h2.1016l46.898 1.6094 23.031 0.91016c6.4258 0.47656 12.762 1.8203 18.828 3.9883 11.82 4.3008 22.195 11.824 29.957 21.723 7.7578 9.8984 12.582 21.773 13.934 34.277 0.17578 3.0781 0.17578 6.1641 0 9.2422v11.691l-0.55859 23.59-1.1914 47.039-1.9609 94.078-0.76953 47.039c-0.20703 11.34-3.5781 22.395-9.7305 31.922-6.0586 9.4453-14.676 16.969-24.848 21.699-4.957 2.3945-10.242 4.0469-15.68 4.9023-6.3594 0.82813-12.781 1.0625-19.184 0.69922l-188.23-0.76953-188.23 0.91016h0.003906c-6.1797 0.28125-12.367-0.046875-18.48-0.98047-5.418-1.0625-10.672-2.8555-15.609-5.3203-10.039-5.0312-18.477-12.766-24.359-22.332-6.0117-9.9102-9.1172-21.309-8.9609-32.898l-0.83984-47.039-1.9609-94.078-1.1211-47.039c0-14.91-1.5391-33.391 0-44.031v-0.003906c1.7227-12.5 6.8906-24.273 14.93-34.004 8.0352-9.7305 18.621-17.031 30.57-21.086 6.1367-2.0273 12.516-3.2266 18.973-3.5703l23.379-0.55859 47.109-1.9609c3.5117 0.53906 7.082-0.48437 9.7773-2.7969 2.6953-2.3164 4.2422-5.6914 4.2422-9.2422s-1.5469-6.9258-4.2422-9.2422c-2.6953-2.3125-6.2656-3.3359-9.7773-2.7969h-2.2383l-46.762-1.9609c-7.9805 0-15.191-0.69922-23.941-0.69922-9.2617 0.011719-18.477 1.332-27.367 3.918-18.246 5.3906-34.59 15.836-47.141 30.133-12.551 14.297-20.793 31.859-23.77 50.648-0.71484 4.6367-1.1562 9.3125-1.332 14v11.762l-0.55859 23.52-1.1914 47.039-2.2383 94.219-0.83984 47.039c-0.25781 20.195 5.1523 40.055 15.609 57.332 10.52 17.426 25.797 31.484 44.031 40.531 9.0664 4.6055 18.758 7.8633 28.77 9.6602 9.25 1.5391 18.625 2.1953 28 1.957l188.23 0.91016 187.74-0.83984c9.3867 0.085938 18.762-0.71094 28-2.3789 9.9453-2.1797 19.551-5.6875 28.559-10.43 17.824-9.4961 32.625-23.797 42.734-41.281 10.109-17.48 15.117-37.445 14.457-57.629l-0.76953-47.039z"/>
  <path d="m367.85 23.238c-4.8438-4.6094-11.273-7.1797-17.957-7.1797-6.6836 0-13.113 2.5703-17.953 7.1797-36.812 35.359-70.383 73.945-100.31 115.29-0.98047 1.2617 1.8203 5.9492 6.3008 10.641 4.4805 4.6914 9.1016 7.6992 10.359 7h0.42188c30.137-20.258 58.965-42.398 86.309-66.293-15.477 120.91-14.512 243.36 2.8711 364 0 2.0312 5.5312 3.5703 12.039 3.5703 6.5117 0 11.828-1.5391 12.039-3.5703v-0.55859c17.309-120.49 18.25-242.77 2.8008-363.51 27.359 24.047 56.234 46.305 86.449 66.641 1.4688 0.83984 6.0898-2.2383 10.641-7 4.5508-4.7578 7.1406-9.4492 6.582-11.199v-0.35156c-30.043-41.141-63.707-79.516-100.59-114.66z"/>
 </g>
</svg>