<svg xmlns="http://www.w3.org/2000/svg" data-name="Layer 1" viewBox="0 0 100 100" x="0px" y="0px"><title>Artboard 12</title><path d="M96.65,46.27a7,7,0,0,0-1.88-2A10.51,10.51,0,0,0,93,43.33l-.33-.14.65-.95,1.38-2,.35-.51.44-.72A9.41,9.41,0,0,0,93.88,27.7a10.57,10.57,0,0,0-1.36-1.11l-1-.71-1-.71L90.14,25l-.38-.23a6,6,0,0,0-.78-.42A9.45,9.45,0,0,0,78.89,25.6a10.32,10.32,0,0,0-1.27,1.27l-.53.72-.36.54-1.42,2.12L64.17,47C56.89,58,50.05,68.54,44.28,77.57l0,.08a2.12,2.12,0,0,0-.32,1c-.58,7.25-1,12.48-1.24,17.12v.1a1.86,1.86,0,0,0,2.76,1.74c6.76-3.76,10.75-6.08,14-8a1.25,1.25,0,0,0,.26-1.69l.11.08a1.26,1.26,0,0,0,1.65-.17C65.58,82.2,71.2,74.31,77.66,65L87.9,50.21l2.67-3.91.29.27a12.27,12.27,0,0,1,1.09,1,3.17,3.17,0,0,1,.51.94,2.93,2.93,0,0,1,0,2.11,2.54,2.54,0,0,1-.25.47l-.54.78-1.28,1.87C87,58.82,84,64.11,83.07,67.13c0,.11.48.55,1.12,1s1.08.62,1.16.56c2.44-2,6.19-6.77,9.55-11.81l1.24-1.9.3-.47.16-.26.21-.37a7.49,7.49,0,0,0-.16-7.58ZM48.19,81.15c.43.16.88.32,1.35.5a19,19,0,0,1,3.38,1.73,19,19,0,0,1,2.91,2.45c.59.6,1.1,1.19,1.59,1.69-2.71,1.27-5.94,2.82-10.57,5.13C47.24,89.37,47.68,85.67,48.19,81.15ZM83.7,47.41,73.92,62.54C68.43,71.11,63.74,78.6,60.27,84.36a9.1,9.1,0,0,0-.45-1.14,11.34,11.34,0,0,0-9.39-6.3h-.17C55.86,68.85,62.13,59.67,68.65,50L79.89,33.3l1.41-2.12.35-.52.23-.3a5,5,0,0,1,.53-.53,4,4,0,0,1,2.8-.92,4,4,0,0,1,1.45.37,1.73,1.73,0,0,1,.33.18l.17.09.25.16,1.06.7,1.05.7a5.29,5.29,0,0,1,.6.48A4,4,0,0,1,91,32.79a4.09,4.09,0,0,1,.19,2.93,4.16,4.16,0,0,1-.29.69l-.2.34-.34.52L89,39.33Z"></path><path d="M2.27,35.79l.16,23.05.13,10.91L2.63,75l0,2.56v.33l0,.43a6.32,6.32,0,0,0,.11.86,8,8,0,0,0,.47,1.66A8.22,8.22,0,0,0,11,86l2.32,0,8.74-.22c5.51-.15,10.36-.33,14.37-.52a1.29,1.29,0,0,0,1.14-1.44,1.27,1.27,0,0,0-1.14-1.24c-4-.19-8.86-.37-14.37-.52L19.53,82c1.78-14.95,1.8-58.48.05-74.36l4.36,0c14.4-.09,27.94-.25,39.47-.48.2,11.27.44,19.29.74,25.37a1.33,1.33,0,0,0,1.47,1.17,1.3,1.3,0,0,0,1.28-1.17c.31-6.47.57-15.12.77-27.56A2.1,2.1,0,0,0,65.6,2.77h-.08c-12-.25-26.29-.43-41.57-.52L12.33,2.19H10.78a8.56,8.56,0,0,0-2.11.31,8.76,8.76,0,0,0-6.41,7.8c-.05.82,0,1.16,0,1.69Zm5,41.77,0-2.56.07-5.24.13-10.91.16-23.05L7.72,12a5.77,5.77,0,0,1,.17-2.07,3.31,3.31,0,0,1,.86-1.36,3.26,3.26,0,0,1,1.39-.8,3.12,3.12,0,0,1,.8-.12h1.39l4.36,0c-1.74,15.87-1.73,59.27,0,74.28l-3.36-.08-2.32,0a4,4,0,0,1-1.49-.34A3.84,3.84,0,0,1,7.5,79.2a3.44,3.44,0,0,1-.18-.76,2.21,2.21,0,0,1,0-.39v-.5Z"></path><path d="M50.22,23.12c.11,1.25.25,2.45.41,3.59l.74,5.07a4.36,4.36,0,0,0,1.06,1.42c.49.48.89.69.92.48.22-1.38.49-3.17.74-5.36s.47-4.77.58-7.6a2.22,2.22,0,0,0-2.11-2.31h-.2C46.21,18.1,38.73,18,31.3,18a2.75,2.75,0,0,0-2.75,2.75c0,4.24.05,8.45.15,12.42v.11a2.54,2.54,0,0,0,2.59,2.49c4.76-.1,9.19-.36,12.87-.68s6.65-.66,8.73-1c.22,0-.06-.5-.62-1A3.63,3.63,0,0,0,51,32.17c-2.37-.29-5.36-.64-8.7-1-2.59-.25-5.4-.46-8.38-.59,0-2.34.08-4.74.09-7.17C39.71,23.43,45.3,23.32,50.22,23.12Z"></path></svg>