<svg xmlns="http://www.w3.org/2000/svg" data-name="Layer 1" viewBox="0 0 100 100" x="0px" y="0px"><title>Artboard 169</title><path d="M57.31,3.63A35.43,35.43,0,0,0,14.94,42.31,34.94,34.94,0,0,0,20.61,57.8a71.59,71.59,0,0,1,7.44,12.35,33.35,33.35,0,0,1,3.34,13.26c0,1.3,0,2.28.12,3.94a10.71,10.71,0,0,0,9.86,9.73c5.45,0,10.12-.24,15.22-.36l1.91-.06A10.14,10.14,0,0,0,64.89,94,10,10,0,0,0,68,85.84c0-1.25-.79-2.23-1.72-2.23s-1.7,1-1.73,2.23v.35a6.22,6.22,0,0,1-2.49,5,6.09,6.09,0,0,1-2.55,1.09,7.25,7.25,0,0,1-1.43.07l-1.87,0-7.5-.21L45,92c-1.15-.05-2.75,0-3.4-.15A5.38,5.38,0,0,1,37.73,89a5.16,5.16,0,0,1-.55-2.34L37.24,83a33.26,33.26,0,0,0-.6-6.29,63.62,63.62,0,0,0,28.53-.21,32.87,32.87,0,0,0-.54,4.76h0c0,1.33.75,2.36,1.69,2.35a2.16,2.16,0,0,0,1.84-2.11l0-.32a38,38,0,0,1,4.45-13.45,67.5,67.5,0,0,1,3.72-6.21c.68-1,1.37-2,2.09-3a33.9,33.9,0,0,0,2.21-3.34,34.61,34.61,0,0,0,1.58-31.51A35.5,35.5,0,0,0,57.31,3.63Zm18.6,49.3c-3.7,5.81-7.79,12.51-9.88,19.84h0A64.71,64.71,0,0,0,53.2,70.91,55.42,55.42,0,0,0,52.79,50a14,14,0,0,0,8.13-4.56A13,13,0,0,0,64,34.93c0-.23-.77-.4-1.7-.39s-1.7.13-1.74.29l0,.05c-3.33,10.64-17.21,10.57-20.46-.05h0a3.27,3.27,0,0,0-1.78-.29c-.94,0-1.71.16-1.76.39V35a13,13,0,0,0,3.18,10.5A14,14,0,0,0,47.85,50a55.27,55.27,0,0,0-.41,20.94,65.27,65.27,0,0,0-11.78,1.66,48.88,48.88,0,0,0-1.87-5.31,78.26,78.26,0,0,0-7.6-13.47A28.56,28.56,0,0,1,22,41.25,28.61,28.61,0,0,1,56.2,10.74,29.08,29.08,0,0,1,75.91,52.93Z"></path></svg>